<!-- Generator: Adobe Illustrator 20.1.0, SVG Export Plug-In  -->
<svg version="1.1"
	 xmlns="http://www.w3.org/2000/svg" xmlns:xlink="http://www.w3.org/1999/xlink" xmlns:a="http://ns.adobe.com/AdobeSVGViewerExtensions/3.0/"
	 x="0px" y="0px" width="61.8px" height="14px" viewBox="0 0 61.8 14" style="overflow:scroll;enable-background:new 0 0 61.8 14;"
	 xml:space="preserve">
<style type="text/css">
	.st0{fill:#FFFFFF;}
</style>
<defs>
</defs>
<g>
	<path class="st0" d="M20.8,5.2c-0.1-0.3-0.3-0.4-0.5-0.4c-0.1,0-0.3,0.1-0.4,0.3c-0.1,0.2-0.1,0.3-0.1,0.6c0,0.2,0,0.4,0.1,0.6
		c0,0.2,0.1,0.4,0.2,0.5c-0.2,0.6-0.5,1.2-0.8,1.8c-0.4,0.6-0.8,0.9-1.3,0.9c-0.2,0-0.3,0-0.4-0.2c-0.1-0.1-0.1-0.3-0.1-0.5
		c0-0.4,0.1-1,0.4-1.5c0.2-0.6,0.6-1.1,0.9-1.5c0.3-0.3,0.5-0.4,0.7-0.5c0.2-0.1,0.4-0.2,0.4-0.3c0-0.1,0-0.1,0-0.1
		c0,0-0.1-0.1-0.2-0.1c0,0-0.1,0-0.7,0.2c-0.4,0.1-0.8,0.4-1.2,0.8c-0.3,0.3-0.5,0.7-0.8,1.1c-0.2,0.4-0.3,0.9-0.3,1.5
		c0,0.5,0.1,0.9,0.3,1.2c0.2,0.3,0.6,0.4,1,0.4c0.8-0.1,1.5-0.5,2.1-1.4c0.6-0.8,0.9-1.7,1-2.6C20.9,5.6,20.9,5.4,20.8,5.2z"/>
	<path class="st0" d="M15.8,2C15.8,2,15.7,2,15.6,1.9c-0.1,0-0.1,0-0.1,0c0,0-0.1,0-0.1,0.1c0,0.1-0.1,0.1-0.1,0.3l-0.7,1.4
		c-0.2,0.4-0.4,0.8-0.7,1.3c-0.2,0.4-0.4,0.8-0.6,1.2C13,6.5,12.9,6.8,12.7,7c-0.1,0.3-0.2,0.5-0.3,0.8c-0.1,0.3-0.1,0.5-0.1,0.7
		c0,0.4,0.1,0.7,0.3,0.9c0.2,0.2,0.4,0.4,0.7,0.4c0.5,0,1-0.4,1.6-0.9c0.7-0.8,0.8-1,0.9-1l0-0.1c0-0.1-0.1-0.2-0.2-0.2l-0.1,0
		l0,0.1c-0.1,0.2-0.4,0.5-0.9,1c-0.5,0.5-0.9,0.7-1.2,0.8c-0.1,0-0.1,0-0.2-0.1c0,0-0.1-0.1-0.1-0.2c0-0.1,0-0.3,0.1-0.5
		c0.1-0.2,0.2-0.4,0.3-0.7c0.1-0.3,0.3-0.6,0.4-0.9c0.2-0.3,0.3-0.6,0.5-1c0.2-0.4,0.4-0.7,0.5-1c0.2-0.3,0.3-0.6,0.4-0.8
		c0.1-0.2,0.2-0.4,0.3-0.6c0.1-0.2,0.1-0.3,0.2-0.5c0-0.1,0.1-0.3,0.1-0.4c0-0.1,0-0.3,0-0.4c0-0.1,0-0.2,0-0.3
		C15.9,2.2,15.9,2.1,15.8,2z"/>
	<path class="st0" d="M13.7,1.6c0.1-0.2,0.1-0.3,0.1-0.4l0,0c0.2,0,0.4,0,0.5,0.1c0.6,0.1,1.1,0.2,1.5,0.3c0.5,0.2,0.9,0.3,1,0.4
		c0.1,0.1,0.2,0.4,0.2,0.7c0,0.1,0,0.2,0,0.2c0,0.1,0.1,0.2,0.2,0.2c0.1,0,0.2-0.1,0.2-0.3c0-0.1,0-0.3,0-0.5c0-0.4-0.1-0.7-0.3-0.9
		c-0.2-0.2-0.5-0.4-1-0.6c-0.7-0.3-1.5-0.5-2.4-0.6C13.1,0.1,12.3,0,11.6,0C10.4,0,9.5,0.2,9,0.5C8.5,0.9,8.2,1.4,8.3,2
		c0,0.3,0,0.6,0.1,0.9c0.1,0.3,0.1,0.6,0.2,0.8C8.6,4,8.7,4.2,8.7,4.3c0,0.1,0.1,0.3,0.3,0.3c0,0,0.1,0,0.1,0c0.1,0,0.1-0.1,0.1-0.2
		C9.2,4.3,9.1,4,9,3.6c-0.1-0.4-0.2-0.7-0.2-1c0-0.4,0.2-0.7,0.7-1c0.5-0.3,1.5-0.5,2.9-0.5c0.3,0,0.7,0,1,0c0,0.1-0.1,0.1-0.1,0.2
		c-0.3,0.5-0.6,1.1-1,1.6c-0.4,0.6-0.8,1.2-1.1,1.7c-0.4,0.6-0.8,1.2-1.2,1.7C9.5,7,9.1,7.5,8.6,7.9c-0.8,0.9-1.6,1.5-2.4,2
		c-0.8,0.5-1.6,0.7-2.4,0.7c-0.9,0-1.7-0.2-2.4-0.6c-0.6-0.4-0.9-0.9-1-1.4C0.6,7.9,1,7.2,2,6.7c1-0.6,2-0.9,3.2-1
		c0.5,0,1,0,1.4,0.1C6.8,5.9,7,6,7.2,6c0.1,0.1,0.3,0.1,0.4,0.2c0.1,0.1,0.1,0.1,0.1,0.2c0,0.1,0,0.1,0,0.2L5.8,6.7
		C5,6.7,4.3,6.8,3.6,6.9C2.8,7.1,2.4,7.4,2.4,7.9c0,0.4,0.3,0.7,0.8,0.9c0.5,0.2,1,0.3,1.7,0.3c0.5,0,0.9-0.1,1.2-0.2
		c0.4-0.1,0.7-0.3,1-0.5c0.3-0.2,0.5-0.4,0.7-0.7C7.9,7.5,8,7.3,8.1,7.1l0.9,0C9,7,9.1,7,9.1,7c0.1,0,0.1-0.1,0.1-0.2
		c0-0.1-0.1-0.2-0.1-0.2c0,0-0.1,0-0.2,0l-0.8,0c0-0.2,0-0.3-0.1-0.5C8,5.9,7.9,5.7,7.7,5.6C7.4,5.3,7,5.1,6.6,5
		C6.2,4.8,5.7,4.8,5.2,4.8C4.1,4.9,3,5.3,1.8,6C0.7,6.7,0,7.8,0,9.2c0,0.8,0.3,1.4,0.8,1.9c0.5,0.5,1.2,0.7,2,0.7c0,0,0,0,0.1,0
		c0.4,0,0.9-0.1,1.5-0.4c0.5-0.2,1.1-0.5,1.8-0.9c0.6-0.4,1.3-0.8,1.9-1.4C8.7,8.7,9.4,8.2,10,7.5c0.4-0.4,0.8-0.9,1.1-1.4
		c0.3-0.5,0.7-0.9,0.9-1.4c0.3-0.5,0.5-0.9,0.8-1.5C13.2,2.7,13.4,2.1,13.7,1.6z M4.6,8.4c-0.3,0-0.5,0-0.7,0c-0.2,0-0.4,0-0.6-0.1
		C3.1,8.2,2.9,8.1,2.9,8c0.1-0.2,0.4-0.4,1.1-0.6c0.4-0.1,0.7-0.1,1-0.2c0.3,0,0.6-0.1,0.9-0.1l1.7-0.1c-0.2,0.3-0.5,0.5-1,0.8
		C6.1,8.1,5.4,8.3,4.6,8.4z"/>
	<path class="st0" d="M45.3,4.8c-0.1,0-0.3,0.1-0.4,0.3c-0.1,0.2-0.1,0.3-0.1,0.6c0,0.2,0,0.4,0.1,0.6c0,0.2,0.1,0.4,0.2,0.5
		c-0.2,0.6-0.5,1.2-0.8,1.8c-0.4,0.6-0.8,0.9-1.3,0.9c-0.2,0-0.3,0-0.4-0.2c-0.1-0.1-0.1-0.3-0.1-0.5c0-0.4,0.1-1,0.4-1.5
		c0.2-0.6,0.6-1.1,0.9-1.5c0.3-0.3,0.5-0.4,0.7-0.5c0.2-0.1,0.4-0.2,0.4-0.3c0-0.1,0-0.1,0-0.1c0,0-0.1-0.1-0.2-0.1
		c0,0-0.1,0-0.7,0.2c-0.4,0.1-0.8,0.4-1.2,0.8c-0.3,0.3-0.5,0.7-0.8,1.1c-0.2,0.4-0.3,0.9-0.3,1.5c0,0.5,0.1,0.9,0.3,1.2
		c0.2,0.3,0.6,0.4,1,0.4c0.8-0.1,1.5-0.5,2.1-1.4c0.6-0.8,0.9-1.7,1-2.6c0-0.3-0.1-0.6-0.2-0.8C45.6,4.9,45.4,4.8,45.3,4.8z"/>
	<path class="st0" d="M40.2,5c-0.2,0.4-0.4,0.8-0.6,1.2l-0.5,0.9c0,0,0,0,0,0c0,0-0.1,0-0.1,0c-0.5,0.1-0.9,0.1-1.1,0l-0.1,0
		c0.1-0.1,0.1-0.2,0.2-0.3c0.1-0.1,0.1-0.3,0.2-0.4c0-0.1,0.1-0.2,0.1-0.3c0-0.1,0-0.2,0-0.3c0-0.1,0-0.2-0.1-0.3
		c0-0.1-0.1-0.2-0.1-0.3C38,5.1,37.9,5,37.8,4.9c-0.1-0.1-0.2-0.1-0.4-0.1c-0.4,0.1-0.9,0.3-1.3,0.8c-0.6,0.6-0.7,0.8-0.7,0.8l0,0
		c0,0.1,0,0.1,0.1,0.2c0,0,0.1,0,0.1,0c0.1,0,0.2-0.1,0.3-0.2c0,0,0-0.1,0.1-0.2l0,0c0.1-0.1,0.2-0.2,0.3-0.3
		c0.1-0.1,0.3-0.3,0.4-0.4c0.1-0.1,0.3-0.2,0.3-0.2c0.1-0.1,0.2-0.1,0.2-0.1c0.1,0,0.1,0,0.1,0c0,0,0,0.1-0.1,0.3
		C37.2,5.8,37,6,36.9,6.4c-0.2,0.4-0.4,0.8-0.6,1.4c-0.3,0.5-0.5,1.2-0.9,1.9l-0.1,0.2l1.2,0l0-0.1c0-0.1,0.1-0.2,0.2-0.3
		c0.1-0.1,0.1-0.3,0.2-0.4C36.9,9,36.9,8.8,37,8.7c0.1-0.1,0.1-0.2,0.2-0.3c0.1-0.2,0.2-0.4,0.3-0.5c0.1-0.1,0.1-0.2,0.2-0.3l0.1,0
		c0.1,0,0.1,0,0.2,0c0.2,0,0.3,0,0.4,0c0.1,0,0.2,0,0.4,0c0.1,0,0.2,0,0.3,0c0,0,0,0,0,0c-0.2,0.3-0.3,0.6-0.4,0.9
		c-0.1,0.3-0.2,0.6-0.2,0.8c0,0.3,0.1,0.4,0.2,0.6c0.1,0.1,0.3,0.2,0.6,0.2c0.3,0,0.5-0.1,0.7-0.3c0.1-0.1,0.2-0.1,0.3-0.2
		c0.1-0.1,0.1-0.1,0.2-0.2c0.1-0.1,0.2-0.2,0.3-0.3c0.1-0.1,0.2-0.2,0.3-0.3c0.3-0.3,0.3-0.4,0.3-0.5C41.1,8.1,41,8,40.9,8
		c0,0,0,0,0,0c-0.1,0-0.2,0.1-0.3,0.3c-0.1,0.1-0.1,0.2-0.2,0.3C40.3,8.7,40.1,8.8,40,9c-0.1,0.1-0.3,0.2-0.4,0.4
		c-0.1,0.1-0.3,0.2-0.4,0.2c0,0,0,0,0-0.1c0-0.1,0.1-0.2,0.1-0.3c0.1-0.1,0.1-0.3,0.3-0.5L40,7.8c0.2-0.3,0.3-0.7,0.5-1.1
		c0.2-0.4,0.5-1,0.7-1.5l0.1-0.2L40.2,5L40.2,5z M37.4,5.2C37.4,5.2,37.4,5.2,37.4,5.2L37.4,5.2L37.4,5.2z"/>
	<path class="st0" d="M52.6,4.5c-0.4,0-0.7,0.1-1,0.3c0.1-0.4,0.2-0.7,0.3-1.1C52,3.4,52,3.1,52.1,2.9c0.1-0.3,0.1-0.4,0.2-0.6
		C52.4,2.2,52.4,2,52.5,2c0.1-0.1,0.1-0.1,0.2-0.2c0.1,0,0.1-0.1,0.1-0.1c0.1,0,0.2,0,0.3,0.1c0.1,0.1,0.2,0.2,0.2,0.2l0,0
		c0,0,0.1,0,0.2-0.1c0-0.1,0-0.1,0-0.2V1.3c0-0.1,0-0.1,0-0.2c0-0.1-0.1-0.1-0.2-0.1c0,0-0.1,0-0.5,0.2c-0.3,0.1-0.5,0.3-0.8,0.5
		C52,1.9,51.8,2,51.7,2.2c-0.1,0.2-0.3,0.4-0.4,0.7c-0.1,0.3-0.3,0.6-0.4,0.9c-0.1,0.4-0.3,0.8-0.5,1.2c-0.1-0.1-0.2-0.2-0.4-0.3
		c-0.2-0.1-0.4-0.1-0.6-0.1c-0.2,0-0.4,0-0.5,0.1c-0.2,0.1-0.3,0.1-0.4,0.2c-0.4,0.2-0.8,0.5-1.2,0.8c-0.3,0.3-0.6,0.7-0.8,1.2
		c-0.2,0.4-0.3,0.9-0.3,1.5c0,0.5,0.1,0.9,0.3,1.2c0.2,0.3,0.6,0.4,1,0.4c0.4,0,0.7-0.1,1.1-0.3c0,0.1-0.1,0.2-0.1,0.3
		c-0.1,0.2-0.1,0.5-0.2,0.7c-0.1,0.5-0.2,1-0.2,1.5c0,0.5,0.1,0.9,0.3,1.2c0.2,0.3,0.4,0.5,0.8,0.5l0.1,0l0.1-0.5l-0.2,0
		c-0.1,0-0.2,0-0.3-0.1c-0.1-0.1-0.1-0.3-0.1-0.5c0-0.2,0.1-0.6,0.2-0.9c0.1-0.4,0.3-0.9,0.5-1.5c0.1-0.2,0.1-0.3,0.2-0.5
		c0-0.1,0.1-0.2,0.1-0.3c0.1,0.1,0.3,0.2,0.5,0.3c0.2,0.1,0.5,0.1,0.8,0c0.3-0.1,0.5-0.2,0.8-0.3c0.3-0.2,0.5-0.3,0.8-0.5
		c0.2-0.2,0.5-0.4,0.6-0.7c0.2-0.2,0.3-0.5,0.4-0.7c0.1-0.2,0.2-0.4,0.2-0.7c0.1-0.2,0.1-0.5,0.1-0.8c0-0.5-0.1-0.9-0.3-1.2
		C53.3,4.6,53,4.5,52.6,4.5z M47.5,7.3c0.1-0.3,0.2-0.5,0.4-0.8c0.2-0.3,0.3-0.5,0.6-0.7c0.2-0.2,0.4-0.4,0.7-0.5
		c0.2-0.1,0.4-0.1,0.5-0.1c0,0,0.1,0,0.1,0c0,0,0,0,0,0.1c0,0,0,0.1,0.1,0.2c0,0.1,0,0.2,0,0.3c0,0.1,0,0.2,0,0.3l-0.2,0.5
		c-0.1,0.2-0.1,0.3-0.2,0.5c-0.1,0.3-0.2,0.5-0.3,0.8c-0.1,0.2-0.1,0.3-0.2,0.5l-0.1,0.2c-0.4,0.6-0.8,0.9-1.3,0.9
		c-0.2,0-0.3,0-0.4-0.2c-0.1-0.1-0.1-0.3-0.1-0.5C47.2,8.4,47.3,7.9,47.5,7.3z M50.1,8.6c0-0.1,0.1-0.1,0.1-0.2
		c0-0.1,0.1-0.1,0.1-0.2c0.1-0.3,0.3-0.7,0.4-1c0.1-0.4,0.3-0.8,0.5-1.2c0,0,0-0.1,0-0.1C51.6,5.3,52,5,52.5,4.9
		c0.2,0,0.3,0,0.4,0.2C52.9,5.2,53,5.4,53,5.6c0,0.5-0.1,1-0.4,1.5c-0.1,0.3-0.3,0.6-0.4,0.8c-0.2,0.2-0.3,0.5-0.5,0.6
		c-0.2,0.1-0.3,0.2-0.4,0.4C51.1,9,51,9.1,50.9,9.2c-0.1,0.1-0.2,0.1-0.3,0.1c-0.1,0-0.2,0-0.3,0c0,0,0-0.1-0.1-0.2
		C50.1,8.9,50.1,8.8,50.1,8.6z"/>
	<path class="st0" d="M26.4,5.2c-0.1-0.2-0.3-0.3-0.6-0.4c-0.1,0-0.3,0-0.4,0.1C25.2,5,25,5.2,24.7,5.5c-0.3,0.3-0.6,0.7-1,1.3
		c-0.1,0.2-0.2,0.3-0.3,0.5c0.1-0.3,0.2-0.6,0.3-0.8c0.1-0.2,0.2-0.4,0.2-0.6C24,5.8,24,5.7,24,5.6c0-0.2-0.1-0.4-0.2-0.5
		c-0.1-0.1-0.3-0.2-0.6-0.2l0,0c-0.5,0.1-1,0.3-1.5,0.7C21.1,6.2,21,6.3,21,6.5c0,0.1,0.1,0.2,0.1,0.2c0,0,0.1,0,0.1,0
		c0.1,0,0.1-0.1,0.3-0.2c0.1-0.1,0.2-0.3,0.4-0.5c0.3-0.3,0.5-0.4,0.7-0.5C22.9,5.3,23,5.3,23,5.3l0,0c0,0.1-0.1,0.2-0.2,0.6
		c-0.1,0.4-0.3,0.9-0.6,1.5c-0.2,0.6-0.5,1.3-0.7,2c-0.2,0.7-0.5,1.5-0.7,2.3c0,0.3-0.1,0.5-0.1,0.7c0,0.2-0.1,0.4-0.1,0.5
		c0,0.2,0,0.3,0.1,0.6c0.1,0.3,0.2,0.4,0.3,0.5l0,0l0,0c0.1,0,0.2-0.2,0.3-0.4c0-0.2,0.1-0.3,0.1-0.5c0.2-0.9,0.4-1.6,0.6-2.1
		c0.2-0.4,0.3-0.8,0.5-1.2c0.1,0.1,0.2,0.1,0.4,0.2c0.2,0.1,0.4,0.1,0.6,0.1c0.9-0.1,1.6-0.7,2.2-1.7c0.6-1,0.9-1.8,0.9-2.5
		C26.6,5.6,26.5,5.4,26.4,5.2z M23.5,9.6c-0.2,0-0.4,0-0.5-0.1c-0.1,0-0.2-0.1-0.3-0.1C23.4,8,24,7,24.5,6.4c0.7-0.8,1-1,1.1-1
		c0,0,0,0.1,0,0.1c0,0.5-0.2,1.1-0.5,2c-0.3,0.8-0.6,1.5-1,1.9c-0.1,0.1-0.2,0.1-0.3,0.2C23.8,9.5,23.7,9.6,23.5,9.6z"/>
	<path class="st0" d="M34.2,7.7c0.4-0.8,0.6-1.3,0.7-1.5c0.1-0.2,0.1-0.4,0.1-0.5c0-0.2,0-0.4-0.1-0.6c-0.1-0.2-0.3-0.3-0.5-0.3
		c-0.3,0-0.5,0.1-0.8,0.4c-0.3,0.2-0.5,0.4-0.7,0.6c-0.4,0.4-0.7,0.8-1.1,1.2c-0.1,0.1-0.1,0.2-0.2,0.2C31.8,7,31.9,6.8,32,6.6
		c0.1-0.2,0.2-0.4,0.2-0.5c0.1-0.2,0.1-0.3,0.1-0.5c0-0.2,0-0.4-0.1-0.6c-0.1-0.1-0.2-0.3-0.5-0.3c-0.2,0-0.5,0.1-0.8,0.3
		c-0.2,0.2-0.5,0.4-0.7,0.6c-0.3,0.3-0.5,0.5-0.7,0.7C29.3,6.6,29.1,6.8,29,7c0-0.1,0.1-0.2,0.1-0.3c0.1-0.2,0.2-0.4,0.2-0.5
		c0.1-0.2,0.1-0.3,0.1-0.4c0-0.3-0.1-0.5-0.2-0.7c-0.2-0.2-0.3-0.3-0.5-0.3l0,0c-0.4,0.1-0.8,0.3-1.3,0.7c-0.6,0.6-0.7,0.8-0.7,0.9
		l0,0c0,0.1,0,0.1,0.1,0.1c0,0,0.1,0,0.1,0.1c0.1,0,0.2-0.1,0.3-0.2c0.1-0.1,0.2-0.2,0.4-0.5c0.3-0.3,0.6-0.5,0.7-0.6
		c0.2-0.1,0.3-0.1,0.3-0.1c0,0,0,0.1-0.1,0.2c-0.1,0.2-0.2,0.4-0.4,0.7C28,6.6,27.8,7,27.5,7.6c-0.3,0.6-0.6,1.2-1,2.1l-0.1,0.2h0.8
		l0,0l0.4,0l0-0.1c0.5-0.8,0.9-1.6,1.4-2.2C29.6,7,30,6.5,30.4,6.1c0.2-0.2,0.5-0.5,0.7-0.6c0.1-0.1,0.2-0.2,0.3-0.2
		c0,0.1-0.1,0.2-0.2,0.4l-0.1,0.1C31,6.2,30.8,6.6,30.6,7c-0.2,0.5-0.5,1-0.7,1.5c-0.2,0.4-0.4,0.8-0.6,1.2l-0.1,0.2h1.2l0-0.1
		c0.4-0.8,0.8-1.4,1.3-2c0.5-0.6,0.9-1.1,1.3-1.5c0.3-0.3,0.6-0.5,0.8-0.7c0.2-0.1,0.3-0.2,0.3-0.2c0,0.1-0.1,0.2-0.2,0.4
		c-0.2,0.3-0.4,0.8-0.7,1.4c-0.3,0.7-0.6,1.1-0.7,1.4c-0.1,0.3-0.2,0.5-0.1,0.6c0,0.2,0.1,0.5,0.2,0.6c0.1,0.2,0.3,0.3,0.6,0.3
		c0.1,0,0.2,0,0.4-0.1c0.1-0.1,0.3-0.2,0.4-0.3c0.2-0.2,0.4-0.4,0.6-0.6c0.3-0.4,0.4-0.5,0.4-0.6l0,0c0,0,0-0.1,0-0.1
		c0,0-0.1-0.1-0.2-0.1c0,0,0,0,0,0c-0.1,0-0.2,0.1-0.4,0.3c-0.1,0.2-0.3,0.4-0.6,0.7c-0.1,0.1-0.2,0.2-0.3,0.3
		c-0.2,0.1-0.2,0.1-0.2,0.1c0,0,0-0.2,0.3-0.7C33.8,8.5,34,8.1,34.2,7.7z"/>
	<path class="st0" d="M61.4,4.9c-0.2-0.3-0.6-0.4-1-0.4c-0.4,0-0.7,0.1-1,0.3c0.1-0.4,0.2-0.7,0.3-1c0.1-0.4,0.2-0.7,0.3-0.9
		c0.1-0.3,0.1-0.4,0.2-0.6C60.2,2.2,60.3,2,60.4,2c0.1-0.1,0.1-0.1,0.2-0.2c0.1,0,0.1-0.1,0.1-0.1c0.1,0,0.2,0,0.3,0.1
		c0.1,0.1,0.2,0.2,0.2,0.2l0,0c0,0,0.1,0,0.2-0.1c0-0.1,0-0.1,0-0.2V1.3c0-0.1,0-0.1,0-0.2c0-0.1-0.1-0.1-0.2-0.1c0,0-0.1,0-0.5,0.2
		c-0.3,0.1-0.5,0.3-0.8,0.5c-0.1,0.1-0.3,0.3-0.4,0.4c-0.1,0.2-0.3,0.4-0.4,0.7c-0.1,0.3-0.3,0.6-0.4,0.9c-0.1,0.4-0.3,0.8-0.5,1.2
		c-0.1-0.1-0.3-0.2-0.4-0.3c-0.2-0.1-0.4-0.1-0.6-0.1c-0.2,0-0.3,0-0.5,0.1c-0.2,0.1-0.3,0.1-0.4,0.2c-0.4,0.2-0.8,0.5-1.2,0.8
		c-0.3,0.3-0.6,0.7-0.8,1.2c-0.2,0.4-0.3,0.9-0.3,1.5c0,0.5,0.1,0.9,0.3,1.2c0.2,0.3,0.6,0.4,1,0.4c0.4,0,0.7-0.1,1.1-0.3
		c0,0.1-0.1,0.2-0.1,0.3c-0.1,0.2-0.1,0.5-0.2,0.7c-0.1,0.5-0.2,1-0.2,1.5c0,0.5,0.1,0.9,0.3,1.2c0.2,0.3,0.4,0.5,0.8,0.5l0.1,0
		l0.1-0.5l-0.2,0c-0.1,0-0.2,0-0.3-0.1c-0.1-0.1-0.1-0.3-0.1-0.5c0-0.2,0.1-0.6,0.2-0.9c0.1-0.4,0.3-0.9,0.5-1.5
		c0.1-0.2,0.1-0.3,0.2-0.5c0-0.1,0.1-0.2,0.1-0.3c0.1,0.1,0.3,0.2,0.5,0.3c0.2,0.1,0.5,0.1,0.8,0c0.3-0.1,0.5-0.2,0.8-0.3
		c0.3-0.2,0.5-0.3,0.8-0.5c0.2-0.2,0.5-0.4,0.6-0.7c0.2-0.2,0.3-0.5,0.4-0.7c0.1-0.2,0.2-0.4,0.2-0.7c0.1-0.2,0.1-0.5,0.1-0.8
		C61.8,5.6,61.6,5.2,61.4,4.9z M55.4,7.3c0.1-0.3,0.2-0.5,0.4-0.8c0.2-0.3,0.3-0.5,0.6-0.7c0.2-0.2,0.4-0.4,0.7-0.5
		c0.2-0.1,0.4-0.1,0.5-0.1c0,0,0.1,0,0.1,0c0,0,0,0,0,0.1c0,0,0,0.1,0.1,0.2c0,0.1,0,0.2,0,0.3c0,0.1,0,0.2,0,0.3l-0.2,0.5
		c-0.1,0.2-0.1,0.3-0.2,0.5c-0.1,0.3-0.2,0.5-0.3,0.8c-0.1,0.2-0.1,0.3-0.2,0.5l-0.1,0.2c-0.4,0.6-0.8,0.9-1.3,0.9
		c-0.2,0-0.3,0-0.4-0.2C55,9.3,55,9.1,55,8.9C55,8.4,55.1,7.9,55.4,7.3z M58,8.6C58,8.5,58,8.4,58,8.4c0-0.1,0.1-0.1,0.1-0.2
		l0.1-0.1c0.1-0.3,0.2-0.6,0.4-0.9c0.1-0.4,0.3-0.8,0.5-1.2c0,0,0,0,0-0.1c0.4-0.6,0.8-0.9,1.3-0.9c0.2,0,0.3,0,0.4,0.2
		c0.1,0.1,0.1,0.3,0.1,0.5c0,0.5-0.1,1-0.4,1.5c-0.1,0.3-0.3,0.6-0.4,0.8c-0.2,0.2-0.3,0.5-0.5,0.6c-0.2,0.1-0.3,0.2-0.4,0.4
		C59,9,58.8,9.1,58.7,9.2c-0.1,0.1-0.2,0.1-0.3,0.1c-0.1,0-0.2,0-0.3,0c0,0,0-0.1-0.1-0.2C58,8.9,57.9,8.8,58,8.6z"/>
</g>
</svg>
